<svg width="318" height="279" xmlns="http://www.w3.org/2000/svg" xmlns:xlink="http://www.w3.org/1999/xlink"><defs><path d="M310.34 153.5l-62.43 108.131a30 30 0 0 1-25.98 15H97.07a30 30 0 0 1-25.98-15L8.66 153.5a30 30 0 0 1 0-30L71.09 15.369a30 30 0 0 1 25.98-15h124.86a30 30 0 0 1 25.98 15L310.34 123.5a30 30 0 0 1 0 30z" id="a"/></defs><g fill="none" fill-rule="evenodd"><g transform="translate(-1 1)"><mask id="b" fill="#fff"><use xlink:href="#a"/></mask><g mask="url(#b)" fill="#FFE01C" fill-rule="nonzero"><path transform="translate(-58 -13)" d="M0.5 0H455.5V303H0.5z"/></g></g><g transform="translate(80 46)" fill="#000"><path d="M152.137 21.999L79.558.229a5.418 5.418 0 0 0-3.115 0l-72.58 21.77A5.42 5.42 0 0 0 0 27.189v79.824c0 10.383 4.204 21.01 12.494 31.59 6.333 8.079 15.093 16.191 26.038 24.113 18.387 13.307 36.492 21.47 37.253 21.81a5.42 5.42 0 0 0 4.43 0c.762-.34 18.867-8.503 37.253-21.81 10.945-7.922 19.705-16.034 26.038-24.114 8.29-10.578 12.494-21.206 12.494-31.589V27.19a5.42 5.42 0 0 0-3.863-5.191zM145 107.222c0 18.43-18.396 35.71-33.828 46.962C97.337 164.271 83.306 171.43 78.001 174c-5.305-2.571-19.337-9.729-33.172-19.816C29.396 142.932 11 125.652 11 107.222V31.204L78 11l67 20.204v76.018z" fill-rule="nonzero"/><text font-family="LucidaGrande-Bold, Lucida Grande" font-size="120" font-weight="bold"><tspan x="26" y="124">@</tspan></text></g></g></svg>